<svg xmlns="http://www.w3.org/2000/svg" width="1200" height="260" viewBox="0 0 1200 260" role="img" aria-labelledby="title desc">
  <title id="title">CineCrew Player</title>
  <desc id="desc">CineCrew Player logo: a blue television screen with a play button, followed by the CineCrew wordmark.</desc>
  <defs>
    <linearGradient id="screen" x1="0" y1="0" x2="1" y2="1">
      <stop offset="0" stop-color="#142d58"/>
      <stop offset="1" stop-color="#08172f"/>
    </linearGradient>
    <linearGradient id="play" x1="0" y1="0" x2="1" y2="1">
      <stop offset="0" stop-color="#20d7f5"/>
      <stop offset="1" stop-color="#1687ef"/>
    </linearGradient>
  </defs>
  <g transform="translate(14 14)">
    <rect x="8" y="8" width="224" height="224" rx="54" fill="#071326" stroke="#294d82" stroke-width="8"/>
    <path d="M78 10 120 -4M164 10 205 -4" fill="none" stroke="#5bc7ff" stroke-linecap="round" stroke-width="7"/>
    <rect x="43" y="59" width="154" height="112" rx="28" fill="url(#screen)" stroke="#1887ee" stroke-width="9"/>
    <path d="m103 85 52 30-52 30z" fill="url(#play)"/>
    <path d="M53 194c34 22 100 28 137 0" fill="none" stroke="#12d7e8" stroke-linecap="round" stroke-width="8"/>
    <circle cx="29" cy="113" r="8" fill="#f4f8ff"/>
    <circle cx="211" cy="113" r="8" fill="#f4f8ff"/>
    <path d="m184 38 8 17 18 2-13 12 4 18-17-9-16 9 3-18-13-12 18-2z" fill="#ff7a72"/>
  </g>
  <text x="278" y="176" font-family="Inter,Arial,Helvetica,sans-serif" font-size="132" font-weight="800" letter-spacing="-6" fill="#397fda">Cine</text>
  <text x="555" y="176" font-family="Inter,Arial,Helvetica,sans-serif" font-size="132" font-weight="800" letter-spacing="-6" fill="#ff766f">Crew</text>
  <text x="864" y="170" font-family="Inter,Arial,Helvetica,sans-serif" font-size="51" font-weight="700" letter-spacing="1" fill="#dbe7f8">PLAYER</text>
  <rect x="280" y="204" width="122" height="10" rx="5" fill="#ff766f"/>
</svg>
